<svg width="145" height="60" viewBox="0 0 145 60" fill="none"
    xmlns="http://www.w3.org/2000/svg">
    <path d="M140.285 39.3159C138.49 39.1739 135.095 38.871 132.679 38.6088C130.328 38.3627 125.335 38.0338 121.584 37.8778C109.253 37.3784 103.407 36.6366 104.469 35.7915C105.113 35.2793 130.231 36.324 133.762 36.9964C136.018 37.4541 140.519 37.5604 139.73 37.1638C138.712 36.6768 126.373 35.6381 119.818 35.4597C116.329 35.3685 111.371 35.2162 108.795 35.1495C106.218 35.0827 104.033 34.9783 103.933 34.8529C103.6 34.4348 104.631 31.5672 105.34 31.0038C106.434 30.133 114.964 29.4233 115.139 30.1717C115.243 30.5668 115.341 30.5574 115.401 30.2365C115.461 29.9156 116.206 29.5962 117.052 29.5371C118.746 29.4189 119.403 29.7831 117.809 29.9594C116.8 30.0791 116.768 30.1047 117.781 30.2546C118.401 30.3074 119.017 30.0905 119.207 29.7345C119.332 29.3624 119.559 29.318 119.629 29.6039C119.666 29.9153 120.09 29.9195 120.509 29.5866C121.284 29.1068 121.085 28.9233 116.979 26.9335C100.752 19.0226 81.5122 14.4629 65.9991 14.7205C46.6412 15.1011 30.3605 20.474 16.9292 30.8838C12.3237 34.4786 11.4575 35.3723 9.22778 38.7156C5.62719 44.0366 4.14752 47.3976 2.45449 53.795C0.97948 59.5412 0.569316 60.4135 0.0610601 59.1796C-0.277777 58.3571 0.874803 50.7514 1.89315 47.0747C3.52916 41.2005 7.39848 34.3007 11.6931 29.588C18.2645 22.4503 24.1664 18.3704 34.2018 13.8695C43.0728 9.95356 52.3918 7.59234 62.8092 6.67818C67.9203 6.23051 79.1357 6.31971 79.5348 6.8214C79.6678 6.98863 79.5057 7.04926 79.2128 7.0775C78.3651 7.06919 78.8918 7.40101 79.9702 7.56714C80.6569 7.7035 80.7535 7.62667 80.3265 7.42026C79.3405 6.90764 80.0842 6.52086 81.2645 6.94724C82.1496 7.26703 82.1829 7.30883 81.4983 7.30731C81.1077 7.34496 81.5025 7.57697 82.3866 7.82934C83.3362 8.09791 84.1538 8.26666 84.2182 8.21544C84.3148 8.13862 83.8223 7.91601 83.1346 7.71223C82.4468 7.50846 82.0187 7.23463 82.2119 7.08097C82.5983 6.77365 84.8247 7.39177 84.7988 7.82188C84.8342 7.99852 86.1775 8.43169 87.846 8.811L90.8224 9.44684L87.8106 8.63436C86.14 8.12021 84.9588 7.62641 85.1842 7.44714C85.8603 6.90933 102.751 11.3578 108.556 13.634C111.639 14.7997 114.164 15.7267 114.195 15.6337C114.16 15.5245 113.366 14.7233 112.405 13.7806C110.024 11.5795 106.599 7.27337 105.956 5.73745C105.616 4.84746 105.701 4.02903 106.212 3.3496C106.626 2.74701 106.874 1.93537 106.705 1.52408C106.163 0.248419 107.525 -0.220451 108.716 0.880104C111.692 3.56407 113.608 5.17987 114.957 6.01754C117.888 7.9181 122.585 12.2367 128.451 18.423C128.849 18.8573 129.774 19.6234 130.498 20.0712C131.19 20.5447 132.677 21.8193 133.803 22.9036C134.928 23.988 137.472 26.1958 139.585 27.8602C142.984 30.5484 143.416 31.0244 143.961 32.5698C144.643 34.4846 144.707 38.597 144.031 39.1349C143.774 39.3397 142.079 39.3905 140.285 39.3159ZM125.262 31.2665C125.162 31.1411 124.867 31.0345 124.574 31.0627C124.313 31.0653 124.219 31.277 124.385 31.486C124.585 31.7369 124.912 31.8179 125.073 31.6898C125.266 31.5361 125.328 31.3501 125.262 31.2665ZM83.6843 13.6909C80.5126 13.0739 72.3512 12.3302 69.8435 12.4819C68.3132 12.6069 70.4689 12.8717 74.5143 13.0669C76.7987 13.2293 80.5865 13.6294 82.9073 14.0359C88.2015 14.8759 88.6876 14.694 83.6843 13.6909ZM77.5818 7.00966C77.0904 6.85447 76.5356 6.81792 76.3424 6.97158C76.1492 7.12524 76.5108 7.31545 77.131 7.3682C78.5677 7.52228 78.7287 7.39423 77.5818 7.00966Z" fill="#FFB5D0"/>
</svg>
